<?xml version="1.0" encoding="UTF-8"?>
<svg id="Layer_2" data-name="Layer 2" xmlns="http://www.w3.org/2000/svg" xmlns:xlink="http://www.w3.org/1999/xlink" viewBox="0 0 351.56 86.11">
  <defs>
    <style>
      .cls-1 {
        fill: #d8d6d6;
      }

      .cls-1, .cls-2, .cls-3, .cls-4, .cls-5 {
        stroke-width: 0px;
      }

      .cls-1, .cls-4 {
        fill-rule: evenodd;
      }

      .cls-6 {
        clip-path: url(#clippath);
      }

      .cls-2 {
        clip-rule: evenodd;
        fill: none;
      }

      .cls-3 {
        fill: #212529;
      }

      .cls-4, .cls-5 {
        fill: #fff;
      }
    </style>
    <clipPath id="clippath">
      <polyline class="cls-2" points="0 0 55.71 0 55.71 75.17 0 75.17 0 0"/>
    </clipPath>
  </defs>
  <g id="Layer_1-2" data-name="Layer 1">
    <g>
      <path class="cls-5" d="M177.85,41.29l.1,2.1c-.52-.32-1.05-.62-1.58-.88-1.41-.69-3.04-1-4.86-1-1.79,0-3.52.39-5.12,1.16-1.61.77-3.09,1.91-4.44,3.38-1.39,1.5-2.43,3.29-3.11,5.31-.68,2.02-1.01,4.28-1.01,6.76,0,5.02,1.12,9.1,3.53,12.07h0c1.2,1.47,2.64,2.6,4.28,3.35,1.64.75,3.48,1.11,5.47,1.11,1.79,0,3.54-.45,5.19-1.31.88-.47,1.71-1,2.47-1.58l.31,2.18h7.57V29.19h-8.8v12.11ZM170.07,66.43c-1.01-.49-1.77-1.3-2.35-2.67-.57-1.36-.9-3.27-.9-5.71,0-2.94.67-5.09,1.86-6.59h0c.63-.79,1.28-1.34,1.94-1.7.67-.35,1.36-.53,2.15-.53.92,0,1.8.17,2.68.51h0c.73.28,1.53.76,2.39,1.43v13.02c-.86.9-1.72,1.58-2.54,2.02-.93.5-1.82.72-2.72.72-1.03,0-1.85-.18-2.53-.51Z"/>
      <path class="cls-5" d="M92.07,53.09h0c1.72-2.13,2.53-4.88,2.53-8.07,0-2.26-.36-4.25-1.13-5.94-.77-1.69-1.98-3.07-3.54-4.03-2.94-1.82-6.56-2.7-10.74-2.69h-14.17v41.61h8.86v-15.66h4.31l8.69,15.66h10.05l-9.89-17.12c2-.85,3.71-2.1,5.04-3.75ZM85.36,47.57c-.43,1.02-1.1,1.72-2.2,2.27-1.1.54-2.66.85-4.69.85h-4.6v-10.74h4.6c2.68,0,4.58.47,5.71,1.23h0s0,0,0,0c.53.35.9.77,1.17,1.38.27.61.44,1.42.44,2.45,0,1.03-.16,1.87-.44,2.56Z"/>
      <polygon class="cls-5" points="89.92 35.04 89.92 35.04 89.92 35.04 89.92 35.04"/>
      <polygon class="cls-5" points="99.35 49.31 99.35 49.31 99.35 49.31 99.35 49.31"/>
      <path class="cls-5" d="M117.52,42.57c-1.67-.71-3.56-1.05-5.64-1.05-2.5,0-4.91.69-7.12,2.04-2.23,1.35-4.04,3.3-5.41,5.76-1.4,2.51-2.07,5.47-2.07,8.82,0,2.52.36,4.81,1.1,6.85.74,2.04,1.88,3.82,3.39,5.3h0s0,0,0,0c2.96,2.91,6.72,4.39,10.98,4.38,2.04,0,3.98-.32,5.8-.96h0s0,0,0,0c1.75-.63,3.35-1.41,4.79-2.34l1.02-.66-3.4-6.2-1.17.73c-.99.62-2,1.11-3.04,1.47-.99.35-2.04.52-3.17.52-2.23-.01-3.89-.66-5.26-1.97-1.08-1.06-1.82-2.44-2.2-4.23h18.36l.25-.98c.24-.96.34-2.1.35-3.48,0-4.33-1.07-7.99-3.33-10.79-1.14-1.42-2.57-2.51-4.24-3.22ZM107.98,50.61c1.24-1.15,2.5-1.66,4.01-1.67.94,0,1.71.14,2.32.39.92.38,1.54.96,2.03,1.93.36.72.61,1.68.71,2.87h-10.97c.36-1.53,1-2.68,1.89-3.52Z"/>
      <path class="cls-5" d="M147.06,42.42c-1.53-.62-3.28-.9-5.23-.9-2.45,0-4.78.41-6.96,1.25-2.1.8-3.95,1.72-5.54,2.77l-1.01.67,3.58,6.38,1.16-.75c1.16-.75,2.41-1.4,3.74-1.94h0c1.26-.52,2.57-.78,3.95-.78.92,0,1.63.14,2.14.36.51.23.82.5,1.07.9.46.75.77,1.59.92,2.55-5.53.68-9.69,1.82-12.54,3.58h0c-1.53.96-2.73,2.15-3.54,3.58-.81,1.43-1.2,3.06-1.2,4.82,0,1.4.22,2.72.68,3.91.46,1.19,1.16,2.26,2.08,3.16h0s0,0,0,0c.92.89,2,1.57,3.2,2.02,1.2.45,2.51.66,3.92.66,1.94,0,3.8-.45,5.5-1.34h0c1.01-.52,1.97-1.12,2.9-1.77l.33,2.39h7.57v-18.75c0-4.11-.91-7.48-2.89-9.96-1-1.26-2.31-2.21-3.84-2.83ZM138.05,61.55h0s0,0,0,0c.66-.43,1.71-.87,3.12-1.26,1.07-.29,2.34-.56,3.81-.79v4.99c-.97.83-1.9,1.49-2.75,1.96-.9.49-1.83.73-2.85.73-1.05,0-1.82-.25-2.46-.7-.24-.18-.41-.39-.55-.71-.13-.32-.22-.75-.22-1.34,0-.57.14-1.03.43-1.5.29-.46.76-.94,1.47-1.39Z"/>
      <polygon class="cls-5" points="176.38 42.52 176.38 42.52 176.38 42.52 176.38 42.52"/>
      <polygon class="cls-5" points="150.89 45.24 150.89 45.25 150.89 45.25 150.89 45.24"/>
    </g>
    <g>
      <path class="cls-5" d="M317.69,57.47c-1.9-1.22-3.9-2.24-6-3.05h0s-.01,0-.01,0c-1.59-.59-3.01-1.18-4.23-1.77-.48-.24-.76-.49-.92-.72-.16-.24-.24-.49-.25-.88,0-.33.06-.59.17-.83.11-.24.27-.47.53-.7.2-.18.5-.35.95-.48.45-.13,1.03-.21,1.76-.2,1.02,0,1.95.2,2.83.59h0s0,0,0,0c.96.41,1.91.97,2.87,1.67l1.04.77,4.4-5.87-1-.79c-1.26-1-2.75-1.84-4.45-2.55-1.78-.75-3.74-1.12-5.83-1.12-1.73,0-3.32.21-4.75.66-1.43.45-2.7,1.14-3.77,2.07h0s0,0,0,0c-1.04.91-1.86,1.98-2.4,3.18-.54,1.2-.81,2.52-.81,3.91,0,1.39.25,2.67.8,3.8.54,1.13,1.38,2.09,2.44,2.81,1.87,1.29,3.85,2.33,5.94,3.11h0c1.55.58,2.97,1.21,4.27,1.89h0s0,0,0,0c.53.27.85.56,1.04.84.19.28.28.57.28,1,0,.4-.07.71-.2,1-.13.28-.32.54-.61.81-.25.22-.59.41-1.08.55-.49.14-1.12.23-1.88.22-1.41,0-2.66-.27-3.79-.79-1.21-.57-2.41-1.33-3.61-2.27l-1.06-.83-4.45,6.08.95.78c1.51,1.24,3.3,2.26,5.34,3.08h0c2.09.83,4.25,1.26,6.44,1.26,1.91,0,3.63-.23,5.17-.72,1.53-.48,2.87-1.23,3.96-2.25,1.06-.97,1.88-2.08,2.43-3.31.55-1.23.82-2.56.82-3.96,0-1.51-.25-2.88-.81-4.08-.55-1.19-1.43-2.18-2.54-2.89Z"/>
      <polygon class="cls-5" points="315.37 42.63 315.38 42.64 315.38 42.64 315.37 42.63"/>
      <polygon class="cls-5" points="317.68 57.47 317.69 57.47 317.69 57.47 317.68 57.47"/>
      <path class="cls-5" d="M342.83,42.23l-4.94,15.81h0c-.4,1.33-.79,2.7-1.18,4.13h0c-.03.12-.06.22-.09.33-.05-.15-.1-.3-.14-.45h0c-.45-1.41-.88-2.75-1.28-4.01v-.03s-5.69-15.77-5.69-15.77h-9.15l12.1,30.25-.45,1.48c-.51,1.45-1.18,2.58-1.98,3.42h0c-.35.38-.74.64-1.2.83-.46.18-1,.29-1.66.29-.23,0-.48-.03-.75-.11h-.02s-.01,0-.01,0c-.38-.1-.73-.19-1.04-.26l-1.28-.32-1.7,7.24,1.09.39c1.26.45,2.63.67,4.08.67,1.68,0,3.22-.26,4.61-.81,1.38-.55,2.6-1.39,3.59-2.49,1.87-2.07,3.38-4.76,4.58-8.05h0s11.26-32.54,11.26-32.54h-8.73Z"/>
      <polygon class="cls-5" points="336.71 62.18 336.71 62.18 336.71 62.17 336.71 62.18"/>
      <polygon class="cls-5" points="290.58 45.24 290.58 45.25 290.58 45.25 290.58 45.24"/>
      <polygon class="cls-5" points="317.78 71.7 317.78 71.7 317.78 71.7 317.78 71.7"/>
      <path class="cls-5" d="M286.74,42.42c-1.53-.62-3.28-.9-5.23-.9-2.45,0-4.78.41-6.96,1.25-2.1.8-3.95,1.72-5.54,2.77l-1.01.67,3.59,6.38,1.16-.75c1.16-.75,2.41-1.4,3.74-1.94h0c1.26-.52,2.57-.78,3.95-.78.92,0,1.63.14,2.14.36.51.23.82.5,1.07.9.46.75.77,1.59.92,2.55-5.53.68-9.69,1.82-12.54,3.58h0c-1.53.96-2.73,2.15-3.54,3.58-.81,1.43-1.2,3.06-1.2,4.82,0,1.4.22,2.72.68,3.91.46,1.19,1.16,2.26,2.08,3.16h0s0,0,0,0c.92.89,2,1.57,3.2,2.02,1.2.45,2.51.66,3.92.66,1.94,0,3.8-.45,5.5-1.34h0c1.01-.52,1.97-1.12,2.9-1.77l.33,2.39h7.57v-18.75c0-4.11-.91-7.48-2.89-9.96-1-1.26-2.31-2.21-3.84-2.83ZM284.67,64.49c-.97.83-1.9,1.49-2.75,1.96-.9.49-1.83.73-2.85.73-1.05,0-1.82-.25-2.46-.7-.24-.18-.41-.39-.55-.71-.13-.32-.22-.75-.22-1.34,0-.57.14-1.03.43-1.5.29-.46.76-.94,1.47-1.39h0c.66-.43,1.71-.88,3.12-1.26,1.07-.29,2.34-.56,3.81-.79v4.99Z"/>
    </g>
    <g>
      <path class="cls-3" d="M212.7,52.3h0c-.27.78-.51,1.57-.76,2.36-.27-.79-.53-1.58-.8-2.36h0s-7.54-21.01-7.54-21.01h-10.6v42.9h9.65v-19.8l5.86,16.06h6.6l5.91-16.22v19.96h9.72V31.3h-10.61l-7.42,21Z"/>
      <polygon class="cls-3" points="247.1 64.97 247.1 56.56 261.35 56.56 261.35 47.27 247.1 47.27 247.1 40.6 263.98 40.6 263.98 31.3 236.86 31.3 236.86 74.2 238.87 74.2 264.56 74.2 264.56 64.97 247.1 64.97"/>
    </g>
    <g class="cls-6">
      <path class="cls-4" d="M2.24,0h37.84l15.64,17.17v55.6c0,1.35-1.01,2.45-2.24,2.45H2.24C1.01,75.23,0,74.12,0,72.77V2.45C0,1.1,1.01,0,2.24,0"/>
      <path class="cls-1" d="M55.71,17.17h-13.4c-1.23,0-2.24-1.1-2.24-2.45V0l15.64,17.17Z"/>
    </g>
    <path id="Icon" class="cls-3" d="M17,75.17c1.83,0,2.25-.6,2.25-1.51s0-2.9-.04-5.72c-9.49,2.02-11.51-4.53-11.51-4.53-1.55-3.85-3.81-4.92-3.81-4.92-3.1-2.06.24-2.02.24-2.02,3.41.24,5.24,3.45,5.24,3.45,3.06,5.16,7.98,3.65,9.92,2.78.16-1.71.91-3.33,2.18-4.53-7.58-.83-15.56-3.73-15.56-16.59-.04-3.33,1.23-6.59,3.53-9.01-.4-.83-1.55-4.25.28-8.89,0,0,2.86-.91,9.41,3.45,5.6-1.51,11.47-1.51,17.07,0,6.47-4.33,9.37-3.45,9.37-3.45,1.83,4.6.67,8.02.36,8.89,2.3,2.42,3.53,5.68,3.49,9.01,0,12.9-7.98,15.72-15.6,16.55,1.19.99,2.3,3.06,2.3,6.19,0,4.53-.04,8.1-.04,9.17,0,.87.35,1.67,2.29,1.67h-21.37Z"/>
  </g>
</svg>